# xmcd
#
# Track frame offsets: 
#        150
#        23863
#        34590
#        46510
#        65833
#        79710
#        97626
#        111532
#        130815
#        144542
#        167052
#        181732
#        194902
#        208335
#        219957
#        240132
#        261628
#        282111
#        299687
#        314264
#
# Disc length: 4445 seconds
#
# Revision: 0
# Processed by: cddbd v1.5.2PL0 Copyright (c) Steve Scherf et al.
# Submitted via: ExactAudioCopy v1.3
#
DISCID=2a115b14
DTITLE=Various Artist - The Best Collection Of Country and Folk Songs - Vol. 1
DYEAR=2002
DGENRE=Pop
TTITLE0=Julie Roger - Ave Maria (the Wedding)
TTITLE1=The Everly Brother - All I Have To Do Is Dream
TTITLE2=Sketter Davis - The End of The World
TTITLE3=Lobo - How Can I Tell Her
TTITLE4=The Brother Fours - Greenfield
TTITLE5=The Carpenters - Yesterday Once More
TTITLE6=Paul Simon and Garfunkel - Sound of Silence
TTITLE7=Nacy Sinatra and Lee Hazlewood - Summer Wine
TTITLE8=John Lennon - Imagine
TTITLE9=Mary Hopkin - Those Were The Days
TTITLE10=Paul Anka - Papa
TTITLE11=The Beegees - Holidays
TTITLE12=Daniel Boone - Beautiful Sunday
TTITLE13=Bread - If
TTITLE14=The Animals - The House of Rising Sun
TTITLE15=Roberta Flack - Killing Me Softly
TTITLE16=The Rolling Stones - Angie
TTITLE17=Charlene - I've Never Been To Me
TTITLE18=Niel Diamond - Sang Sung Blue
TTITLE19=The Hollies - He Ain't Heaven, He's My Brother
EXTD=
EXTT0=
EXTT1=
EXTT2=
EXTT3=
EXTT4=
EXTT5=
EXTT6=
EXTT7=
EXTT8=
EXTT9=
EXTT10=
EXTT11=
EXTT12=
EXTT13=
EXTT14=
EXTT15=
EXTT16=
EXTT17=
EXTT18=
EXTT19=
PLAYORDER=
